PathFileType	4	(X/Y/Z)	/Users/itak/Documents/Research/Walk-IL/dataset/trc/00106_00007.trc
DataRate	CameraRate	NumFrames	NumMarkers	Units	OrigDataRate	OrigDataStartFrame	OrigNumFrames
100.000000	100.000000	4	53	mm	100.000000	65	527
Frame#	Time	RPSI			LPSI			L3			STRN			T10			C7			CLAV			RBAK			LBAK			LSHO			LUPA			LAEL			LAOL			LWTS			LWPS			LFRA			LIFD			LHPS			LHTS			RSHO			RUPA			RAEL			RAOL			RWTS			RWPS			RFRA			RIFD			RHTS			RHPS			RBHD			LFHD			RFHD			LBHD			LHIP			RHIP			RASI			LASI			LKNE			LTHI			LANK			LTIP			LTOE			LMT1			LMT5			LHEE			RKNE			RTHI			RANK			RTIP			RTOE			RMT1			RMT5			RHEE			
		X1	Y1	Z1	X2	Y2	Z2	X3	Y3	Z3	X4	Y4	Z4	X5	Y5	Z5	X6	Y6	Z6	X7	Y7	Z7	X8	Y8	Z8	X9	Y9	Z9	X10	Y10	Z10	X11	Y11	Z11	X12	Y12	Z12	X13	Y13	Z13	X14	Y14	Z14	X15	Y15	Z15	X16	Y16	Z16	X17	Y17	Z17	X18	Y18	Z18	X19	Y19	Z19	X20	Y20	Z20	X21	Y21	Z21	X22	Y22	Z22	X23	Y23	Z23	X24	Y24	Z24	X25	Y25	Z25	X26	Y26	Z26	X27	Y27	Z27	X28	Y28	Z28	X29	Y29	Z29	X30	Y30	Z30	X31	Y31	Z31	X32	Y32	Z32	X33	Y33	Z33	X34	Y34	Z34	X35	Y35	Z35	X36	Y36	Z36	X37	Y37	Z37	X38	Y38	Z38	X39	Y39	Z39	X40	Y40	Z40	X41	Y41	Z41	X42	Y42	Z42	X43	Y43	Z43	X44	Y44	Z44	X45	Y45	Z45	X46	Y46	Z46	X47	Y47	Z47	X48	Y48	Z48	X49	Y49	Z49	X50	Y50	Z50	X51	Y51	Z51	X52	Y52	Z52	X53	Y53	Z53	

66	0.65	-1688.598999023438	1127.598510742188	-226.2014923095703	-1708.673706054688	1131.057373046875	-359.6954650878906	-1704.6650390625	1164.547485351562	-293.7516174316406	-1480.007690429688	1359.9921875	-319.9696350097656	-1736.630126953125	1317.189086914062	-287.1233520507812	-1690.638793945312	1608.388549804688	-301.7694396972656	-1508.727172851562	1497.697021484375	-316.244140625	-1739.950561523438	1424.9248046875	-210.3796234130859	-1709.715087890625	1591.488647460938	-402.8821105957031	-1630.137451171875	1577.0322265625	-479.6260681152344	-1658.578369140625	1447.885864257812	-551.9940795898438	-1642.86376953125	1227.673950195312	-578.388671875	-1706.44091796875	1213.55078125	-519.3021850585938	-1532.176635742188	973.9522094726562	-540.8783569335938	-1613.526489257812	945.2869262695312	-565.8369750976562	-1622.984985351562	1112.009155273438	-584.2343139648438	-1515.491943359375	783.1148681640625	-516.7833862304688	-1580.880859375	871.5753173828125	-568.1438598632812	-1513.757690429688	885.09912109375	-552.8877563476562	-1614.418334960938	1585.342407226562	-128.2682647705078	-1628.48291015625	1513.492797851562	-63.21916580200195	-1662.44873046875	1221.374389648438	-41.42719650268555	-1667.725341796875	1218.522583007812	-138.7392272949219	-1527.319458007812	973.3477172851562	-47.83422088623047	-1603.039916992188	959.6312866210938	-17.31661033630371	-1642.69921875	1147.332641601562	-24.20764541625977	-1512.884155273438	778.3727416992188	-67.66935729980469	-1502.815673828125	863.0706176757812	-41.79248428344727	-1571.666137695312	858.498779296875	-11.31227111816406	-1586.9287109375	1745.427124023438	-196.5487365722656	-1547.014770507812	1868.452026367188	-376.8715209960938	-1466.68896484375	1851.685424804688	-274.3460998535156	-1675.517211914062	1764.57470703125	-296.1668395996094	-1632.055053710938	1041.339721679688	-479.4237365722656	-1549.052368164062	1029.067626953125	-130.1786651611328	-1472.95947265625	1101.140869140625	-191.7063598632812	-1517.585083007812	1106.583374023438	-453.6766662597656	-1595.51416015625	536.9033203125	-448.1013488769531	-1621.786254882812	682.981201171875	-477.0974731445312	-1699.75390625	36.67076873779297	-428.9419860839844	-1693.419799804688	289.9779357910156	-466.4257202148438	-1467.752807617188	37.60247802734375	-374.0006408691406	-1548.315795898438	41.6800422668457	-339.4493713378906	-1574.449829101562	33.23227310180664	-456.4899597167969	-1766.903686523438	36.95222091674805	-364.4233093261719	-1572.5478515625	537.4169921875	-157.9405059814453	-1536.82861328125	816.6543579101562	-138.5481872558594	-1680.118408203125	28.77504539489746	-167.7046966552734	-1602.84375	405.7917785644531	-144.1927032470703	-1449.520751953125	41.79975128173828	-219.9582366943359	-1507.889892578125	30.85479545593262	-263.1097106933594	-1546.793579101562	38.02849960327148	-146.888427734375	-1737.56787109375	31.25500106811523	-216.4949035644531	
67	0.66	-1688.280517578125	1127.54833984375	-225.4118194580078	-1709.085693359375	1131.087280273438	-358.7847900390625	-1704.716430664062	1164.53173828125	-292.8354797363281	-1480.063720703125	1359.994995117188	-320.0784301757812	-1736.609008789062	1317.252075195312	-285.8952331542969	-1690.578857421875	1608.40576171875	-300.4427490234375	-1508.860107421875	1497.637329101562	-316.0394897460938	-1739.483154296875	1424.871948242188	-208.987060546875	-1710.24072265625	1591.634887695312	-401.4779968261719	-1631.082641601562	1577.283569335938	-478.6928100585938	-1659.978637695312	1448.228881835938	-551.0592651367188	-1644.608764648438	1228.047241210938	-577.861083984375	-1707.776611328125	1213.897094726562	-518.35791015625	-1534.147338867188	974.0401611328125	-541.59228515625	-1615.715942382812	945.59375	-566.0121459960938	-1624.958984375	1112.373413085938	-584.049072265625	-1517.982666015625	782.7877197265625	-518.3304443359375	-1583.27734375	871.8150634765625	-568.7382202148438	-1516.021606445312	885.1577758789062	-553.91943359375	-1613.385009765625	1585.12109375	-127.4088134765625	-1627.127685546875	1513.194702148438	-62.34932708740234	-1661.137817382812	1221.08447265625	-40.69526290893555	-1666.994140625	1218.36669921875	-137.942626953125	-1526.760131835938	972.70458984375	-48.24392318725586	-1602.324951171875	959.1821899414062	-17.21439170837402	-1641.452758789062	1147.003662109375	-23.67583656311035	-1513.1494140625	777.6561889648438	-68.39435577392578	-1502.65234375	862.271728515625	-42.51625823974609	-1571.270751953125	857.93017578125	-11.53176975250244	-1586.672973632812	1745.235473632812	-195.6024627685547	-1547.12255859375	1868.557861328125	-375.7931213378906	-1466.634033203125	1851.630981445312	-273.4510498046875	-1675.460083007812	1764.530151367188	-295.0021057128906	-1633.1435546875	1041.475341796875	-479.064208984375	-1548.20263671875	1028.995361328125	-130.2423858642578	-1472.430419921875	1101.048461914062	-192.0580291748047	-1518.438842773438	1106.78125	-453.8161315917969	-1595.77734375	536.9666137695312	-448.0534057617188	-1622.3291015625	683.0638427734375	-476.9796142578125	-1699.75244140625	36.67155075073242	-428.9276123046875	-1693.627807617188	290.0200500488281	-466.306640625	-1467.73974609375	37.64176177978516	-374.0407104492188	-1548.313354492188	41.69368743896484	-339.4779968261719	-1574.454956054688	33.23183059692383	-456.5050659179688	-1766.897583007812	36.95868682861328	-364.3893127441406	-1571.929809570312	537.3418579101562	-157.9802856445312	-1536.3017578125	816.52734375	-138.7993927001953	-1680.1005859375	28.75845718383789	-167.6861724853516	-1602.3251953125	405.6633911132812	-144.1938934326172	-1449.518432617188	41.78513336181641	-219.9804382324219	-1507.854370117188	30.84633636474609	-263.1208801269531	-1546.790649414062	38.03315734863281	-146.9111633300781	-1737.583618164062	31.25689697265625	-216.4749450683594	
68	0.67	-1687.973266601562	1127.505493164062	-224.6388854980469	-1709.478271484375	1131.1201171875	-357.8865966796875	-1704.77001953125	1164.512817382812	-291.9357299804688	-1480.125244140625	1360.004272460938	-320.1567077636719	-1736.58642578125	1317.308349609375	-284.7005615234375	-1690.511840820312	1608.417358398438	-299.1497192382812	-1509.049194335938	1497.564575195312	-315.8167419433594	-1739.040649414062	1424.825805664062	-207.6473083496094	-1710.741088867188	1591.772827148438	-400.1172180175781	-1631.989990234375	1577.520751953125	-477.7826843261719	-1661.319580078125	1448.546142578125	-550.136474609375	-1646.3232421875	1228.3984375	-577.3207397460938	-1709.100219726562	1214.239501953125	-517.4208984375	-1536.15234375	974.0929565429688	-542.2230834960938	-1617.921997070312	945.8753662109375	-566.12255859375	-1626.929809570312	1112.713134765625	-583.8318481445312	-1520.5927734375	782.3927001953125	-519.820556640625	-1585.715698242188	872.0264282226562	-569.2440795898438	-1518.330932617188	885.1729125976562	-554.8497924804688	-1612.405395507812	1584.912719726562	-126.5820083618164	-1625.844970703125	1512.900268554688	-61.50468444824219	-1659.894165039062	1220.799194335938	-39.99410629272461	-1666.305053710938	1218.210327148438	-137.1731719970703	-1526.109130859375	972.1461181640625	-48.63513565063477	-1601.529174804688	958.7648315429688	-17.1175479888916	-1640.240478515625	1146.682006835938	-23.16417694091797	-1513.208374023438	777.0350952148438	-69.10190582275391	-1502.301391601562	861.5806274414062	-43.21360397338867	-1570.734375	857.41650390625	-11.74856472015381	-1586.365600585938	1745.005981445312	-194.6580505371094	-1547.234741210938	1868.683349609375	-374.697265625	-1466.558715820312	1851.5556640625	-272.5727844238281	-1675.39453125	1764.502319335938	-293.8021850585938	-1634.185302734375	1041.611206054688	-478.7046813964844	-1547.412841796875	1028.925659179688	-130.2935638427734	-1471.944580078125	1100.958251953125	-192.3791351318359	-1519.265258789062	1106.985717773438	-453.9167785644531	-1596.00537109375	537.036865234375	-447.9892578125	-1622.836669921875	683.1480102539062	-476.8518676757812	-1699.748413085938	36.67502975463867	-428.9091491699219	-1693.809936523438	290.0580139160156	-466.174560546875	-1467.724731445312	37.67676162719727	-374.087890625	-1548.30810546875	41.70677185058594	-339.5050048828125	-1574.458374023438	33.23335647583008	-456.5196838378906	-1766.888305664062	36.97144317626953	-364.3521728515625	-1571.325317382812	537.2732543945312	-157.9776611328125	-1535.754638671875	816.4143676757812	-139.0045166015625	-1680.085693359375	28.73417472839355	-167.6651000976562	-1601.82861328125	405.5500183105469	-144.1775207519531	-1449.514282226562	41.77550888061523	-219.9901885986328	-1507.827392578125	30.8419303894043	-263.1252136230469	-1546.792114257812	38.03191375732422	-146.9219818115234	-1737.60302734375	31.25869178771973	-216.4555206298828	
69	0.68	-1687.669067382812	1127.471923828125	-223.8822937011719	-1709.851196289062	1131.158081054688	-357.003173828125	-1704.822143554688	1164.4931640625	-291.0543212890625	-1480.200561523438	1360.016723632812	-320.2096862792969	-1736.557373046875	1317.350219726562	-283.5366821289062	-1690.440063476562	1608.42822265625	-297.8928527832031	-1509.278930664062	1497.489013671875	-315.5741271972656	-1738.623413085938	1424.782836914062	-206.3605804443359	-1711.213500976562	1591.906616210938	-398.7981872558594	-1632.856811523438	1577.742309570312	-476.8941345214844	-1662.602294921875	1448.838012695312	-549.2269287109375	-1648.001831054688	1228.728881835938	-576.7686157226562	-1710.4111328125	1214.578002929688	-516.494384765625	-1538.18359375	974.1109008789062	-542.764892578125	-1620.140258789062	946.1325073242188	-566.1700439453125	-1628.888671875	1113.028198242188	-583.5824584960938	-1523.264526367188	781.9745483398438	-521.2073974609375	-1588.186889648438	872.21142578125	-569.6595458984375	-1520.681518554688	885.152099609375	-555.6762084960938	-1611.484375	1584.716186523438	-125.7835922241211	-1624.638793945312	1512.608642578125	-60.68496704101562	-1658.718505859375	1220.516357421875	-39.32362365722656	-1665.655883789062	1218.049560546875	-136.4365081787109	-1525.354370117188	971.6663208007812	-49.00327682495117	-1600.65087890625	958.375732421875	-17.02967071533203	-1639.064453125	1146.365844726562	-22.67339324951172	-1513.044189453125	776.5111083984375	-69.78390502929688	-1501.763916015625	861.0064086914062	-43.87189102172852	-1570.0537109375	856.954833984375	-11.96034812927246	-1586.009521484375	1744.745727539062	-193.7125091552734	-1547.358154296875	1868.826782226562	-373.5935974121094	-1466.45263671875	1851.46240234375	-271.7203369140625	-1675.324340820312	1764.490600585938	-292.5689392089844	-1635.178955078125	1041.750244140625	-478.3439025878906	-1546.680541992188	1028.855712890625	-130.3364105224609	-1471.493286132812	1100.868286132812	-192.6765594482422	-1520.073364257812	1107.193725585938	-453.9819641113281	-1596.204956054688	537.1173706054688	-447.9143371582031	-1623.308837890625	683.2341918945312	-476.7122802734375	-1699.7421875	36.68348693847656	-428.8876953125	-1693.968139648438	290.0936279296875	-466.035400390625	-1467.706298828125	37.70806884765625	-374.1392211914062	-1548.298217773438	41.72059631347656	-339.5306701660156	-1574.459350585938	33.23636627197266	-456.5340270996094	-1766.875610351562	36.99064636230469	-364.3104553222656	-1570.7353515625	537.20751953125	-157.9338226318359	-1535.1796875	816.3131103515625	-139.166259765625	-1680.072875976562	28.70169830322266	-167.6403350830078	-1601.355102539062	405.4501037597656	-144.1409149169922	-1449.5078125	41.76937103271484	-219.9882202148438	-1507.820922851562	30.83751106262207	-263.1263732910156	-1546.796997070312	38.02520751953125	-146.9203338623047	-1737.623779296875	31.25986671447754	-216.4358215332031	
